<?xml version="1.0" standalone="no"?><!DOCTYPE svg PUBLIC "-//W3C//DTD SVG 1.1//EN" "http://www.w3.org/Graphics/SVG/1.1/DTD/svg11.dtd"><svg t="1546514237626" class="icon" style="" viewBox="0 0 1024 1024" version="1.1" xmlns="http://www.w3.org/2000/svg" p-id="3218" xmlns:xlink="http://www.w3.org/1999/xlink" width="32" height="32"><defs><style type="text/css"></style></defs><path d="M512 64c-247.04 0-448 200.96-448 448s200.96 448 448 448 448-200.96 448-448-200.96-448-448-448z m0 831.71328c-211.584 0-383.71328-172.16-383.71328-383.71328 0-211.584 172.12928-383.71328 383.71328-383.71328 211.55328 0 383.71328 172.12928 383.71328 383.71328 0 211.55328-172.16 383.71328-383.71328 383.71328zM671.96928 512H512V288.06656c0-17.7664-14.23872-32.128-32-32.128S448 270.336 448 288.06656v255.93344a31.90784 31.90784 0 0 0 32 32h191.96928c17.75616 0 32.128-14.23872 32.128-32s-14.37184-32-32.128-32z" fill="#99a2aa" p-id="3219"></path></svg>